<mxfile host="65bd71144e">
    <diagram id="qJ0rYHE0b2Qbb1FsmOr8" name="Page-1">
        <mxGraphModel dx="302" dy="1749" grid="1" gridSize="10" guides="1" tooltips="1" connect="1" arrows="1" fold="1" page="1" pageScale="1" pageWidth="850" pageHeight="1100" math="0" shadow="0">
            <root>
                <mxCell id="0"/>
                <mxCell id="1" parent="0"/>
                <mxCell id="2" style="edgeStyle=orthogonalEdgeStyle;rounded=0;orthogonalLoop=1;jettySize=auto;html=1;entryX=0.5;entryY=0;entryDx=0;entryDy=0;strokeColor=#66B2FF;" edge="1" parent="1" source="3" target="5">
                    <mxGeometry relative="1" as="geometry"/>
                </mxCell>
                <mxCell id="3" value="&lt;font style=&quot;font-size: 9px;&quot;&gt;Start Page&lt;/font&gt;" style="ellipse;whiteSpace=wrap;html=1;aspect=fixed;fillColor=#dae8fc;strokeColor=#6c8ebf;" vertex="1" parent="1">
                    <mxGeometry x="1272" y="10" width="48" height="48" as="geometry"/>
                </mxCell>
                <mxCell id="4" style="edgeStyle=orthogonalEdgeStyle;rounded=0;orthogonalLoop=1;jettySize=auto;html=1;strokeColor=#66B2FF;" edge="1" parent="1" source="5" target="12">
                    <mxGeometry relative="1" as="geometry"/>
                </mxCell>
                <mxCell id="5" value="Q1" style="rounded=0;whiteSpace=wrap;html=1;fillColor=#d5e8d4;strokeColor=#82b366;" vertex="1" parent="1">
                    <mxGeometry x="1236" y="98" width="120" height="40" as="geometry"/>
                </mxCell>
                <mxCell id="6" style="edgeStyle=orthogonalEdgeStyle;rounded=0;orthogonalLoop=1;jettySize=auto;html=1;strokeColor=#66B2FF;" edge="1" parent="1" source="12" target="14">
                    <mxGeometry relative="1" as="geometry"/>
                </mxCell>
                <mxCell id="7" value="B, C" style="edgeLabel;html=1;align=center;verticalAlign=middle;resizable=0;points=[];" connectable="0" vertex="1" parent="6">
                    <mxGeometry x="-0.1932" y="-1" relative="1" as="geometry">
                        <mxPoint as="offset"/>
                    </mxGeometry>
                </mxCell>
                <mxCell id="8" style="edgeStyle=orthogonalEdgeStyle;rounded=0;orthogonalLoop=1;jettySize=auto;html=1;strokeColor=#FF0000;" edge="1" parent="1" source="12" target="23">
                    <mxGeometry relative="1" as="geometry">
                        <mxPoint x="1367" y="472" as="targetPoint"/>
                        <Array as="points">
                            <mxPoint x="1437" y="192"/>
                            <mxPoint x="1437" y="476"/>
                        </Array>
                    </mxGeometry>
                </mxCell>
                <mxCell id="9" value="&amp;nbsp;D&amp;nbsp;" style="edgeLabel;html=1;align=center;verticalAlign=middle;resizable=0;points=[];" connectable="0" vertex="1" parent="8">
                    <mxGeometry x="-0.7262" y="1" relative="1" as="geometry">
                        <mxPoint as="offset"/>
                    </mxGeometry>
                </mxCell>
                <mxCell id="10" style="edgeStyle=orthogonalEdgeStyle;rounded=0;orthogonalLoop=1;jettySize=auto;html=1;entryX=0;entryY=0.5;entryDx=0;entryDy=0;strokeColor=#66B2FF;" edge="1" parent="1" source="12" target="16">
                    <mxGeometry relative="1" as="geometry">
                        <Array as="points">
                            <mxPoint x="1177" y="192"/>
                            <mxPoint x="1177" y="382"/>
                        </Array>
                    </mxGeometry>
                </mxCell>
                <mxCell id="11" value="&amp;nbsp;A&amp;nbsp;" style="edgeLabel;html=1;align=center;verticalAlign=middle;resizable=0;points=[];" connectable="0" vertex="1" parent="10">
                    <mxGeometry x="-0.7419" y="1" relative="1" as="geometry">
                        <mxPoint as="offset"/>
                    </mxGeometry>
                </mxCell>
                <mxCell id="12" value="&lt;span style=&quot;font-size: 9px;&quot;&gt;Selected&lt;/span&gt;" style="rhombus;whiteSpace=wrap;html=1;fillColor=#fff2cc;strokeColor=#d6b656;" vertex="1" parent="1">
                    <mxGeometry x="1271" y="167" width="51" height="50" as="geometry"/>
                </mxCell>
                <mxCell id="13" style="edgeStyle=orthogonalEdgeStyle;rounded=0;orthogonalLoop=1;jettySize=auto;html=1;strokeColor=#66B2FF;" edge="1" parent="1" source="14" target="16">
                    <mxGeometry relative="1" as="geometry"/>
                </mxCell>
                <mxCell id="14" value="Q2" style="rounded=0;whiteSpace=wrap;html=1;fillColor=#ffe6cc;strokeColor=#d79b00;" vertex="1" parent="1">
                    <mxGeometry x="1236.5" y="279" width="120" height="40" as="geometry"/>
                </mxCell>
                <mxCell id="15" style="edgeStyle=orthogonalEdgeStyle;rounded=0;orthogonalLoop=1;jettySize=auto;html=1;strokeColor=#66B2FF;" edge="1" parent="1" source="16" target="23">
                    <mxGeometry relative="1" as="geometry"/>
                </mxCell>
                <mxCell id="16" value="Q3A" style="rounded=0;whiteSpace=wrap;html=1;fillColor=#ffe6cc;strokeColor=#d79b00;" vertex="1" parent="1">
                    <mxGeometry x="1234" y="357" width="124" height="50" as="geometry"/>
                </mxCell>
                <mxCell id="17" style="edgeStyle=orthogonalEdgeStyle;rounded=0;orthogonalLoop=1;jettySize=auto;html=1;strokeColor=#FF0000;" edge="1" parent="1" source="21" target="25">
                    <mxGeometry relative="1" as="geometry"/>
                </mxCell>
                <mxCell id="18" value="&amp;nbsp;B, C&amp;nbsp;" style="edgeLabel;html=1;align=center;verticalAlign=middle;resizable=0;points=[];" connectable="0" vertex="1" parent="17">
                    <mxGeometry x="-0.3413" relative="1" as="geometry">
                        <mxPoint as="offset"/>
                    </mxGeometry>
                </mxCell>
                <mxCell id="19" style="edgeStyle=orthogonalEdgeStyle;rounded=0;orthogonalLoop=1;jettySize=auto;html=1;strokeColor=#66B2FF;" edge="1" parent="1" source="21" target="27">
                    <mxGeometry relative="1" as="geometry"/>
                </mxCell>
                <mxCell id="20" value="&amp;nbsp;A&amp;nbsp;" style="edgeLabel;html=1;align=center;verticalAlign=middle;resizable=0;points=[];" connectable="0" vertex="1" parent="19">
                    <mxGeometry x="-0.2989" y="1" relative="1" as="geometry">
                        <mxPoint x="-1" y="-2" as="offset"/>
                    </mxGeometry>
                </mxCell>
                <mxCell id="21" value="&lt;font style=&quot;font-size: 9px;&quot;&gt;Selected&lt;/font&gt;" style="rhombus;whiteSpace=wrap;html=1;fillColor=#fff2cc;strokeColor=#d6b656;" vertex="1" parent="1">
                    <mxGeometry x="1271" y="533" width="51" height="50" as="geometry"/>
                </mxCell>
                <mxCell id="22" style="edgeStyle=orthogonalEdgeStyle;rounded=0;orthogonalLoop=1;jettySize=auto;html=1;strokeColor=#66B2FF;" edge="1" parent="1" source="23" target="21">
                    <mxGeometry relative="1" as="geometry"/>
                </mxCell>
                <mxCell id="23" value="Q4" style="rounded=0;whiteSpace=wrap;html=1;fillColor=#ffe6cc;strokeColor=#d79b00;" vertex="1" parent="1">
                    <mxGeometry x="1234" y="451" width="124" height="50" as="geometry"/>
                </mxCell>
                <mxCell id="24" style="edgeStyle=orthogonalEdgeStyle;rounded=0;orthogonalLoop=1;jettySize=auto;html=1;entryX=0;entryY=0.5;entryDx=0;entryDy=0;strokeColor=#FF0000;" edge="1" parent="1" source="25" target="27">
                    <mxGeometry relative="1" as="geometry"/>
                </mxCell>
                <mxCell id="25" value="Q3B" style="rounded=0;whiteSpace=wrap;html=1;fillColor=#ffe6cc;strokeColor=#d79b00;" vertex="1" parent="1">
                    <mxGeometry x="1052" y="638" width="124" height="50" as="geometry"/>
                </mxCell>
                <mxCell id="26" style="edgeStyle=orthogonalEdgeStyle;rounded=0;orthogonalLoop=1;jettySize=auto;html=1;strokeColor=#66B2FF;" edge="1" parent="1" source="27" target="29">
                    <mxGeometry relative="1" as="geometry"/>
                </mxCell>
                <mxCell id="27" value="Q5" style="rounded=0;whiteSpace=wrap;html=1;fillColor=#d5e8d4;strokeColor=#82b366;" vertex="1" parent="1">
                    <mxGeometry x="1234.5" y="638" width="124" height="50" as="geometry"/>
                </mxCell>
                <mxCell id="28" style="edgeStyle=orthogonalEdgeStyle;rounded=0;orthogonalLoop=1;jettySize=auto;html=1;strokeColor=#66B2FF;" edge="1" parent="1" source="29" target="31">
                    <mxGeometry relative="1" as="geometry"/>
                </mxCell>
                <mxCell id="29" value="Q6" style="rounded=0;whiteSpace=wrap;html=1;fillColor=#d5e8d4;strokeColor=#82b366;" vertex="1" parent="1">
                    <mxGeometry x="1234.5" y="720" width="124" height="50" as="geometry"/>
                </mxCell>
                <mxCell id="30" style="edgeStyle=orthogonalEdgeStyle;rounded=0;orthogonalLoop=1;jettySize=auto;html=1;entryX=0.5;entryY=0;entryDx=0;entryDy=0;strokeColor=#66B2FF;" edge="1" parent="1" source="31" target="33">
                    <mxGeometry relative="1" as="geometry"/>
                </mxCell>
                <mxCell id="31" value="Q7" style="rounded=0;whiteSpace=wrap;html=1;fillColor=#d5e8d4;strokeColor=#82b366;" vertex="1" parent="1">
                    <mxGeometry x="1235" y="805" width="124" height="50" as="geometry"/>
                </mxCell>
                <mxCell id="32" style="edgeStyle=orthogonalEdgeStyle;rounded=0;orthogonalLoop=1;jettySize=auto;html=1;strokeColor=#66B2FF;" edge="1" parent="1" source="33" target="34">
                    <mxGeometry relative="1" as="geometry">
                        <mxPoint x="1297.0000000000005" y="979" as="targetPoint"/>
                    </mxGeometry>
                </mxCell>
                <mxCell id="33" value="Q8" style="rounded=0;whiteSpace=wrap;html=1;fillColor=#d5e8d4;strokeColor=#82b366;" vertex="1" parent="1">
                    <mxGeometry x="1234.5" y="891" width="124" height="50" as="geometry"/>
                </mxCell>
                <mxCell id="34" value="&lt;font style=&quot;font-size: 9px;&quot;&gt;End Page&lt;/font&gt;" style="ellipse;whiteSpace=wrap;html=1;aspect=fixed;fillColor=#dae8fc;strokeColor=#6c8ebf;direction=south;" vertex="1" parent="1">
                    <mxGeometry x="1273" y="971" width="48" height="48" as="geometry"/>
                </mxCell>
                <mxCell id="35" value="&lt;br style=&quot;font-size: 10px;&quot;&gt;&lt;table style=&quot;width: 291pt; font-size: 10px;&quot; width=&quot;388&quot; cellspacing=&quot;0&quot; cellpadding=&quot;0&quot; border=&quot;0&quot;&gt;&lt;tbody style=&quot;font-size: 10px;&quot;&gt;&lt;tr style=&quot;height: 60pt; font-size: 10px;&quot; height=&quot;80&quot;&gt;  &lt;td style=&quot;height: 60pt; font-size: 10px;&quot; width=&quot;388&quot; align=&quot;left&quot; class=&quot;xl63&quot; height=&quot;80&quot;&gt;(เลือกได้ 1 ข้อ) [Radio]&lt;br style=&quot;font-size: 10px;&quot;&gt;    [not shuffle choice]&amp;nbsp;&lt;/td&gt;&lt;/tr&gt;&lt;/tbody&gt;&lt;/table&gt;" style="shape=note;size=15;align=left;spacingLeft=10;html=1;whiteSpace=wrap;fillColor=default;fontSize=10;" vertex="1" parent="1">
                    <mxGeometry x="982" y="17" width="150" height="50" as="geometry"/>
                </mxCell>
                <mxCell id="36" value="" style="edgeStyle=none;endArrow=none;dashed=1;html=1;rounded=0;entryX=0;entryY=1;entryDx=0;entryDy=0;" edge="1" parent="1" source="35">
                    <mxGeometry x="1" relative="1" as="geometry">
                        <mxPoint x="1236" y="97" as="targetPoint"/>
                    </mxGeometry>
                </mxCell>
                <mxCell id="37" value="&lt;br style=&quot;font-size: 10px;&quot;&gt;&lt;table style=&quot;width: 291pt; font-size: 10px;&quot; width=&quot;388&quot; cellspacing=&quot;0&quot; cellpadding=&quot;0&quot; border=&quot;0&quot;&gt;&lt;tbody style=&quot;font-size: 10px;&quot;&gt;&lt;tr style=&quot;height: 60pt; font-size: 10px;&quot; height=&quot;80&quot;&gt;  &lt;td style=&quot;height: 60pt; font-size: 10px;&quot; width=&quot;388&quot; align=&quot;left&quot; class=&quot;xl63&quot; height=&quot;80&quot;&gt;Check box&lt;br style=&quot;font-size: 10px;&quot;&gt;    [ไม่ shuffle choice]&amp;nbsp;&lt;/td&gt;&lt;/tr&gt;&lt;/tbody&gt;&lt;/table&gt;" style="shape=note;size=18;align=left;spacingLeft=10;html=1;whiteSpace=wrap;fillColor=default;fontSize=10;" vertex="1" parent="1">
                    <mxGeometry x="982.5" y="175" width="150" height="55" as="geometry"/>
                </mxCell>
                <mxCell id="38" value="" style="edgeStyle=none;endArrow=none;dashed=1;html=1;rounded=0;entryX=0;entryY=0;entryDx=0;entryDy=0;" edge="1" parent="1" source="37" target="14">
                    <mxGeometry x="1" relative="1" as="geometry">
                        <mxPoint x="1037" y="242" as="targetPoint"/>
                    </mxGeometry>
                </mxCell>
                <mxCell id="39" value="(เลือกได้มากกว่า 1 ข้อ) [shuffle choice, ‘other’ at the bottom]" style="shape=note;size=15;align=left;spacingLeft=10;html=1;whiteSpace=wrap;fillColor=default;fontSize=10;" vertex="1" parent="1">
                    <mxGeometry x="982.5" y="277" width="150" height="50" as="geometry"/>
                </mxCell>
                <mxCell id="40" value="" style="edgeStyle=none;endArrow=none;dashed=1;html=1;rounded=0;entryX=0;entryY=0;entryDx=0;entryDy=0;" edge="1" parent="1" source="39" target="16">
                    <mxGeometry x="1" relative="1" as="geometry">
                        <mxPoint x="1236.5" y="357" as="targetPoint"/>
                    </mxGeometry>
                </mxCell>
                <mxCell id="41" value="[not shuffle choice] (ถามทุกคน)" style="shape=note;size=15;align=left;spacingLeft=10;html=1;whiteSpace=wrap;fillColor=default;fontSize=10;" vertex="1" parent="1">
                    <mxGeometry x="980" y="371" width="150" height="50" as="geometry"/>
                </mxCell>
                <mxCell id="42" value="" style="edgeStyle=none;endArrow=none;dashed=1;html=1;rounded=0;entryX=0;entryY=1;entryDx=0;entryDy=0;" edge="1" parent="1" source="41">
                    <mxGeometry x="1" relative="1" as="geometry">
                        <mxPoint x="1234" y="451" as="targetPoint"/>
                    </mxGeometry>
                </mxCell>
                <mxCell id="43" value="(เลือกได้มากกว่า 1 ข้อ) [shuffle choice, ‘other’ at the bottom] (ถามเฉพาะคนที่ตอบ (Q1 = D) และ Q4 = B&amp;nbsp; หรือ C)" style="shape=note;size=15;align=left;spacingLeft=10;html=1;whiteSpace=wrap;fillColor=default;fontSize=10;" vertex="1" parent="1">
                    <mxGeometry x="980" y="462" width="167" height="63" as="geometry"/>
                </mxCell>
                <mxCell id="44" value="" style="edgeStyle=none;endArrow=none;dashed=1;html=1;rounded=0;entryX=0.25;entryY=0;entryDx=0;entryDy=0;" edge="1" parent="1" source="43" target="25">
                    <mxGeometry x="1" relative="1" as="geometry">
                        <mxPoint x="1234" y="555" as="targetPoint"/>
                    </mxGeometry>
                </mxCell>
                <mxCell id="45" value="[shuffle choice, อื่นๆ อยู่ล่างสุด] &lt;br&gt;[ถามทุกคน]" style="shape=note;size=15;align=left;spacingLeft=10;html=1;whiteSpace=wrap;fillColor=default;fontSize=10;" vertex="1" parent="1">
                    <mxGeometry x="990.25" y="705" width="167" height="63" as="geometry"/>
                </mxCell>
                <mxCell id="46" value="" style="edgeStyle=none;endArrow=none;dashed=1;html=1;rounded=0;entryX=0;entryY=1;entryDx=0;entryDy=0;" edge="1" parent="1" source="45" target="27">
                    <mxGeometry x="1" relative="1" as="geometry">
                        <mxPoint x="716.5" y="665" as="targetPoint"/>
                    </mxGeometry>
                </mxCell>
                <mxCell id="47" value="(เลือกได้หลายข้อ) [Shuffle choices, except ตัวเลือกที่กล่าวมาไม่น่าสนใจเลย&amp;nbsp; and other at the bottom] [ถามทุกคน]" style="shape=note;size=15;align=left;spacingLeft=10;html=1;whiteSpace=wrap;fillColor=default;fontSize=10;" vertex="1" parent="1">
                    <mxGeometry x="990.25" y="796" width="180.5" height="68" as="geometry"/>
                </mxCell>
                <mxCell id="48" value="" style="edgeStyle=none;endArrow=none;dashed=1;html=1;rounded=0;entryX=0;entryY=1;entryDx=0;entryDy=0;" edge="1" parent="1" source="47" target="29">
                    <mxGeometry x="1" relative="1" as="geometry">
                        <mxPoint x="1358.5" y="709" as="targetPoint"/>
                    </mxGeometry>
                </mxCell>
                <mxCell id="49" value="[ถามทุกคน]" style="shape=note;size=15;align=left;spacingLeft=10;html=1;whiteSpace=wrap;fillColor=default;fontSize=10;" vertex="1" parent="1">
                    <mxGeometry x="997" y="915.5" width="167" height="63" as="geometry"/>
                </mxCell>
                <mxCell id="50" value="" style="edgeStyle=none;endArrow=none;dashed=1;html=1;rounded=0;entryX=0;entryY=1;entryDx=0;entryDy=0;" edge="1" parent="1" source="49" target="31">
                    <mxGeometry x="1" relative="1" as="geometry">
                        <mxPoint x="882" y="844" as="targetPoint"/>
                    </mxGeometry>
                </mxCell>
                <mxCell id="51" value="[ถามทุกคน]" style="shape=note;size=15;align=left;spacingLeft=10;html=1;whiteSpace=wrap;fillColor=default;fontSize=10;" vertex="1" parent="1">
                    <mxGeometry x="997" y="1011.5" width="167" height="63" as="geometry"/>
                </mxCell>
                <mxCell id="52" value="" style="edgeStyle=none;endArrow=none;dashed=1;html=1;rounded=0;entryX=0;entryY=1;entryDx=0;entryDy=0;" edge="1" parent="1" source="51" target="33">
                    <mxGeometry x="1" relative="1" as="geometry">
                        <mxPoint x="1234" y="880.5" as="targetPoint"/>
                    </mxGeometry>
                </mxCell>
                <mxCell id="53" value="1. ปัจจุบันท่านมีสินเชื่อประเภทใดบ้าง (เลือกได้ 1 ข้อ) [not shuffle choice]" style="shape=note2;boundedLbl=1;whiteSpace=wrap;html=1;size=25;verticalAlign=top;align=center;fillColor=#b1ddf0;strokeColor=#10739e;" vertex="1" parent="1">
                    <mxGeometry x="1517" y="58" width="210" height="80" as="geometry"/>
                </mxCell>
                <mxCell id="54" value="2. ท่านมีสินเชื่อหมุนเวียนอยู่กับสถาบันการเงินใดบ้าง ตอบได้มากกว่า 1 ข้อ [ไม่ต้อง shuffle choice]" style="shape=note2;boundedLbl=1;whiteSpace=wrap;html=1;size=25;verticalAlign=top;align=center;fillColor=#fad7ac;strokeColor=#b46504;" vertex="1" parent="1">
                    <mxGeometry x="1517" y="167" width="210" height="80" as="geometry"/>
                </mxCell>
                <mxCell id="55" value="3A. จากสินเชื่อส่วนบุคคลที่ท่านใช้งานอยู่ ท่านใช้สินเชื่อเพื่อวัตถุประสงค์อะไรบ้าง (เลือกได้มากกว่า 1 ข้อ) [shuffle choice, ‘other’ at the bottom] (ไปข้อ 4)" style="shape=note2;boundedLbl=1;whiteSpace=wrap;html=1;size=25;verticalAlign=top;align=center;fillColor=#fad7ac;strokeColor=#b46504;" vertex="1" parent="1">
                    <mxGeometry x="1517" y="279" width="210" height="103" as="geometry"/>
                </mxCell>
                <mxCell id="56" value="4. ท่านสนใจขอสินเชื่อหมุนเวียนหรือไม่? (ถ้าสินเชื่อหมุนเวียน คือการมีวงเงินให้เบิกใช้ คล้ายกับบัตรกดเงินสด เมื่อจ่ายคืน ก็สามารถเบิกใช้ได้อีก) [not shuffle choice] (ถามทุกคน)" style="shape=note2;boundedLbl=1;whiteSpace=wrap;html=1;size=25;verticalAlign=top;align=center;fillColor=#b1ddf0;strokeColor=#10739e;" vertex="1" parent="1">
                    <mxGeometry x="1517" y="405" width="210" height="117" as="geometry"/>
                </mxCell>
                <mxCell id="57" value="3B. หากท่านมีความต้องการที่จะใช้สินเชื่อส่วนบุคคล ท่านคิดว่าจะใช้สินเชื่อเพื่อวัตถุประสงค์อะไรบ้าง (เลือกได้มากกว่า 1 ข้อ) [shuffle choice, ‘other’ at the bottom] (ถามเฉพาะคนที่ตอบ (Q1 = D) และ Q4 = B หรือ C)" style="shape=note2;boundedLbl=1;whiteSpace=wrap;html=1;size=25;verticalAlign=top;align=center;fillColor=#d0cee2;strokeColor=#56517e;" vertex="1" parent="1">
                    <mxGeometry x="1417" y="535" width="330" height="97" as="geometry"/>
                </mxCell>
                <mxCell id="58" value="5. ปัจจัยที่ท่านใช้ในการพิจารณาเลือกใช้ธนาคารสำหรับผลิตภัณฑ์สินเชื่อหมุนเวียน (Revolving Loan) (เลือกได้หลายข้อ) [shuffle choice, อื่นๆ อยู่ล่างสุด] [ถามทุกคน]" style="shape=note2;boundedLbl=1;whiteSpace=wrap;html=1;size=25;verticalAlign=top;align=center;fillColor=#b1ddf0;strokeColor=#10739e;" vertex="1" parent="1">
                    <mxGeometry x="1517" y="643" width="240" height="115" as="geometry"/>
                </mxCell>
                <mxCell id="59" value="6. สิ่งใดต่อไปนี้ที่ทำให้ท่านอยากใช้งานสินเชื่อหมุนเวียน (Revolving Loan) (เลือกได้หลายข้อ) [Shuffle choices, except ตัวเลือกที่กล่าวมาไม่น่าสนใจเลย and other at the bottom] [ถามทุกคน]" style="shape=note2;boundedLbl=1;whiteSpace=wrap;html=1;size=25;verticalAlign=top;align=center;fillColor=#b1ddf0;strokeColor=#10739e;" vertex="1" parent="1">
                    <mxGeometry x="1517" y="784" width="230" height="108" as="geometry"/>
                </mxCell>
                <mxCell id="60" value="7. จากทางเลือกระยะเวลาในการชำระสินเชื่อบุคคล ท่านชอบทางเลือกในการชำระสินเชื่อแบบใดมากกว่ากัน [ถามทุกคน]" style="shape=note2;boundedLbl=1;whiteSpace=wrap;html=1;size=25;verticalAlign=top;align=center;fillColor=#b1ddf0;strokeColor=#10739e;" vertex="1" parent="1">
                    <mxGeometry x="1517" y="915.5" width="230" height="96.5" as="geometry"/>
                </mxCell>
                <mxCell id="61" value="" style="endArrow=none;dashed=1;html=1;rounded=0;entryX=0;entryY=0.5;entryDx=0;entryDy=0;entryPerimeter=0;" edge="1" parent="1" source="5" target="53">
                    <mxGeometry width="50" height="50" relative="1" as="geometry">
                        <mxPoint x="1367" y="412" as="sourcePoint"/>
                        <mxPoint x="1417" y="362" as="targetPoint"/>
                    </mxGeometry>
                </mxCell>
                <mxCell id="62" value="" style="endArrow=none;dashed=1;html=1;rounded=0;exitX=1;exitY=0.75;exitDx=0;exitDy=0;" edge="1" parent="1" source="14">
                    <mxGeometry width="50" height="50" relative="1" as="geometry">
                        <mxPoint x="1356" y="294" as="sourcePoint"/>
                        <mxPoint x="1507" y="212" as="targetPoint"/>
                    </mxGeometry>
                </mxCell>
                <mxCell id="63" value="" style="endArrow=none;dashed=1;html=1;rounded=0;exitX=1;exitY=0.5;exitDx=0;exitDy=0;entryX=0;entryY=0.5;entryDx=0;entryDy=0;entryPerimeter=0;" edge="1" parent="1" source="16" target="55">
                    <mxGeometry width="50" height="50" relative="1" as="geometry">
                        <mxPoint x="1347" y="402" as="sourcePoint"/>
                        <mxPoint x="1497" y="305" as="targetPoint"/>
                    </mxGeometry>
                </mxCell>
                <mxCell id="64" value="" style="endArrow=none;dashed=1;html=1;rounded=0;exitX=1;exitY=0;exitDx=0;exitDy=0;entryX=0.014;entryY=0.333;entryDx=0;entryDy=0;entryPerimeter=0;" edge="1" parent="1" source="23" target="56">
                    <mxGeometry width="50" height="50" relative="1" as="geometry">
                        <mxPoint x="1356" y="486" as="sourcePoint"/>
                        <mxPoint x="1515" y="435" as="targetPoint"/>
                    </mxGeometry>
                </mxCell>
                <mxCell id="65" value="" style="endArrow=none;dashed=1;html=1;rounded=0;exitX=1;exitY=0;exitDx=0;exitDy=0;entryX=-0.01;entryY=0.258;entryDx=0;entryDy=0;entryPerimeter=0;" edge="1" parent="1" source="25" target="57">
                    <mxGeometry width="50" height="50" relative="1" as="geometry">
                        <mxPoint x="1227" y="605" as="sourcePoint"/>
                        <mxPoint x="1389" y="598" as="targetPoint"/>
                    </mxGeometry>
                </mxCell>
                <mxCell id="66" value="" style="endArrow=none;dashed=1;html=1;rounded=0;exitX=1;exitY=0.5;exitDx=0;exitDy=0;entryX=-0.005;entryY=0.635;entryDx=0;entryDy=0;entryPerimeter=0;" edge="1" parent="1" source="27" target="58">
                    <mxGeometry width="50" height="50" relative="1" as="geometry">
                        <mxPoint x="1273" y="764" as="sourcePoint"/>
                        <mxPoint x="1511" y="687" as="targetPoint"/>
                    </mxGeometry>
                </mxCell>
                <mxCell id="67" value="" style="endArrow=none;dashed=1;html=1;rounded=0;exitX=1;exitY=0.5;exitDx=0;exitDy=0;entryX=-0.013;entryY=0.315;entryDx=0;entryDy=0;entryPerimeter=0;" edge="1" parent="1" source="29" target="59">
                    <mxGeometry width="50" height="50" relative="1" as="geometry">
                        <mxPoint x="1359" y="752" as="sourcePoint"/>
                        <mxPoint x="1516" y="805" as="targetPoint"/>
                    </mxGeometry>
                </mxCell>
                <mxCell id="68" value="" style="endArrow=none;dashed=1;html=1;rounded=0;exitX=1;exitY=0.5;exitDx=0;exitDy=0;entryX=-0.01;entryY=0.194;entryDx=0;entryDy=0;entryPerimeter=0;" edge="1" parent="1" source="31" target="60">
                    <mxGeometry width="50" height="50" relative="1" as="geometry">
                        <mxPoint x="1347" y="825.5" as="sourcePoint"/>
                        <mxPoint x="1502" y="898.5" as="targetPoint"/>
                    </mxGeometry>
                </mxCell>
                <mxCell id="69" value="8. ปัจจุบันท่านถือบัตรเครดิตอยู่หรือไม่ [ถามทุกคน]" style="shape=note2;boundedLbl=1;whiteSpace=wrap;html=1;size=25;verticalAlign=top;align=center;fillColor=#b1ddf0;strokeColor=#10739e;" vertex="1" parent="1">
                    <mxGeometry x="1517" y="1036.75" width="230" height="75.25" as="geometry"/>
                </mxCell>
                <mxCell id="70" value="" style="endArrow=none;dashed=1;html=1;rounded=0;exitX=1;exitY=0.5;exitDx=0;exitDy=0;entryX=0;entryY=0.11;entryDx=0;entryDy=0;entryPerimeter=0;" edge="1" parent="1" source="33" target="69">
                    <mxGeometry width="50" height="50" relative="1" as="geometry">
                        <mxPoint x="1361" y="932.75" as="sourcePoint"/>
                        <mxPoint x="1517" y="1036.75" as="targetPoint"/>
                    </mxGeometry>
                </mxCell>
            </root>
        </mxGraphModel>
    </diagram>
</mxfile>